  0
SECTION
  2
HEADER
  9
$ACADVER
  1
AC1009
  9
$LIMMIN
 10
0.000000
 20
0.000000
  9
$LIMMAX
 10
206.666667
 20
136.895677
  0
ENDSEC
  0
SECTION
  2
TABLES
  0
TABLE
  2
LTYPE
 70
     4
  0
LTYPE
  2
CONTINUOUS
 70
     0
  3
Solid line
 72
    65
 73
     0
 40
0.000000
  0
LTYPE
  2
HIDDEN
 70
     0
  3
 _ _ _ _ _ _ _ _ _ _ _
 72
    65
 73
     2
 40
0.375000
 49
0.250000
 49
-0.125000
  0
LTYPE
  2
DASHED
 70
     0
  3
 ___ ___ ___ ___ ___ ___ ___ 
 72
    65
 73
     2
 40
0.750000
 49
0.500000
 49
-0.250000
  0
LTYPE
  2
CENTER
 70
     0
  3
___ _ ___ _ ___ _ ___
 72
    65
 73
     4
 40
2.000000
 49
1.250000
 49
-0.250000
 49
0.250000
 49
-0.250000
  0
LTYPE
  2
BORDER
 70
     0
  3
___ ___ . ___ ___ . ___ ___
 72
    65
 73
     6
 40
1.750000
 49
0.500000
 49
-0.250000
 49
0.500000
 49
-0.250000
 49
0.000000
 49
-0.250000
  0
LTYPE
  2
DOT
 70
     0
  3
.................
 72
    65
 73
     2
 40
0.250000
 49
0.000000
 49
-0.250000
  0
LTYPE
  2
DASHDOT
 70
     0
  3
__ . __ . __ . __
 72
    65
 73
     4
 40
1.000000
 49
0.500000
 49
-0.250000
 49
0.000000
 49
-0.250000
  0
LTYPE
  2
DIVIDE
 70
     0
  3
___ .. ___ .. ___ .. ___
 72
    65
 73
     6
 40
1.250000
 49
0.500000
 49
-0.250000
 49
0.000000
 49
-0.250000
 49
0.000000
 49
-0.250000
  0
ENDTAB
  0
TABLE
  2
LAYER
 70
     8
  0
LAYER
  2
BLACK
 70
     0
 62
     1
  6
CONTINUOUS
  0
LAYER
  2
WHITE
 70
     0
 62
     7
  6
CONTINUOUS
  0
LAYER
  2
RED
 70
     0
 62
     1
  6
CONTINUOUS
  0
LAYER
  2
YELLOW
 70
     0
 62
     2
  6
CONTINUOUS
  0
LAYER
  2
GREEN
 70
     0
 62
     3
  6
CONTINUOUS
  0
LAYER
  2
CYAN
 70
     0
 62
     4
  6
CONTINUOUS
  0
LAYER
  2
BLUE
 70
     0
 62
     5
  6
CONTINUOUS
  0
LAYER
  2
MAGENTA
 70
     0
 62
     6
  6
CONTINUOUS
  0
ENDTAB
  0
ENDSEC
  0
SECTION
  2
BLOCKS
  0
ENDSEC
  0
SECTION
  2
ENTITIES
  0
LINE
  8
WHITE
 10
42.625000
 20
57.265527
 30
0.000000
 11
42.625000
 21
33.108910
 31
0.000000
  6
CONTINUOUS
  0
LINE
  8
WHITE
 10
42.625000
 20
33.108910
 30
0.000000
 11
41.075000
 21
33.108910
 31
0.000000
  6
CONTINUOUS
  0
LINE
  8
WHITE
 10
41.075000
 20
33.108910
 30
0.000000
 11
41.075000
 21
57.265527
 31
0.000000
  6
CONTINUOUS
  0
LINE
  8
WHITE
 10
41.075000
 20
57.265527
 30
0.000000
 11
39.201137
 21
57.265527
 31
0.000000
  6
CONTINUOUS
  0
ARC
  8
WHITE
 10
39.201137
 20
56.232194
 30
0.000000
 40
1.033333
 50
90.000000
 51
170.063890
  6
CONTINUOUS
  0
LINE
  8
WHITE
 10
38.183303
 20
56.410495
 30
0.000000
 11
35.650000
 21
41.949144
 31
0.000000
  6
CONTINUOUS
  0
ARC
  8
WHITE
 10
38.022520
 20
12.962203
 30
0.000000
 40
29.083872
 50
94.679109
 51
110.396880
  6
CONTINUOUS
  0
ARC
  8
WHITE
 10
42.849008
 20
-0.017996
 30
0.000000
 40
42.932357
 50
110.396880
 51
154.468485
  6
CONTINUOUS
  0
ARC
  8
WHITE
 10
13.433333
 20
14.032428
 30
0.000000
 40
10.333333
 50
154.468485
 51
227.840662
  6
CONTINUOUS
  0
ARC
  8
WHITE
 10
16.982473
 20
17.952170
 30
0.000000
 40
15.621128
 50
-132.159338
 51
-121.286779
  6
CONTINUOUS
  0
ARC
  8
WHITE
 10
14.236405
 20
13.433333
 30
0.000000
 40
10.333333
 50
-121.286779
 51
-87.831731
  6
CONTINUOUS
  0
LINE
  8
WHITE
 10
14.627361
 20
3.107398
 30
0.000000
 11
17.825000
 21
3.228466
 31
0.000000
  6
CONTINUOUS
  0
LINE
  8
WHITE
 10
17.825000
 20
3.228466
 30
0.000000
 11
17.825000
 21
7.937151
 31
0.000000
  6
CONTINUOUS
  0
LINE
  8
WHITE
 10
17.825000
 20
7.937151
 30
0.000000
 11
19.375000
 21
7.937151
 31
0.000000
  6
CONTINUOUS
  0
LINE
  8
WHITE
 10
19.375000
 20
7.937151
 30
0.000000
 11
19.375000
 21
3.287151
 31
0.000000
  6
CONTINUOUS
  0
LINE
  8
WHITE
 10
19.375000
 20
3.287151
 30
0.000000
 11
39.678630
 21
4.055877
 31
0.000000
  6
CONTINUOUS
  0
ARC
  8
WHITE
 10
39.678630
 20
14.389211
 30
0.000000
 40
10.333333
 50
-90.000000
 51
-31.607502
  6
CONTINUOUS
  0
LINE
  8
WHITE
 10
48.479099
 20
8.973537
 30
0.000000
 11
50.892457
 21
12.419364
 31
0.000000
  6
CONTINUOUS
  0
ARC
  8
WHITE
 10
59.356377
 20
6.491479
 30
0.000000
 40
10.333333
 50
94.000000
 51
144.993714
  6
CONTINUOUS
  0
LINE
  8
WHITE
 10
58.635560
 20
16.799641
 30
0.000000
 11
64.325000
 21
17.197485
 31
0.000000
  6
CONTINUOUS
  0
LINE
  8
WHITE
 10
64.325000
 20
17.197485
 30
0.000000
 11
64.325000
 21
21.901678
 31
0.000000
  6
CONTINUOUS
  0
LINE
  8
WHITE
 10
64.325000
 20
21.901678
 30
0.000000
 11
65.875000
 21
21.901678
 31
0.000000
  6
CONTINUOUS
  0
LINE
  8
WHITE
 10
65.875000
 20
21.901678
 30
0.000000
 11
65.875000
 21
17.305872
 31
0.000000
  6
CONTINUOUS
  0
LINE
  8
WHITE
 10
65.875000
 20
17.305872
 30
0.000000
 11
66.908114
 21
17.378114
 31
0.000000
  6
CONTINUOUS
  0
ARC
  8
WHITE
 10
66.187297
 20
27.686276
 30
0.000000
 40
10.333333
 50
-86.000000
 51
-14.081907
  6
CONTINUOUS
  0
LINE
  8
WHITE
 10
76.210102
 20
25.172086
 30
0.000000
 11
76.421042
 21
26.012998
 31
0.000000
  6
CONTINUOUS
  0
LINE
  8
WHITE
 10
76.421042
 20
26.012998
 30
0.000000
 11
162.125673
 21
38.788448
 31
0.000000
  6
CONTINUOUS
  0
LINE
  8
WHITE
 10
162.125673
 20
38.788448
 30
0.000000
 11
165.218447
 21
33.018472
 31
0.000000
  6
CONTINUOUS
  0
ARC
  8
WHITE
 10
165.673822
 20
33.262558
 30
0.000000
 40
0.516667
 50
-151.808179
 51
-93.030691
  6
CONTINUOUS
  0
LINE
  8
WHITE
 10
165.646505
 20
32.746614
 30
0.000000
 11
168.302510
 21
32.605992
 31
0.000000
  6
CONTINUOUS
  0
ARC
  8
WHITE
 10
168.329826
 20
33.121936
 30
0.000000
 40
0.516667
 50
-93.030691
 51
9.346003
  6
CONTINUOUS
  0
LINE
  8
WHITE
 10
168.839635
 20
33.205841
 30
0.000000
 11
167.539678
 21
41.104434
 31
0.000000
  6
CONTINUOUS
  0
LINE
  8
WHITE
 10
167.539678
 20
41.104434
 30
0.000000
 11
163.876639
 21
40.751479
 31
0.000000
  6
CONTINUOUS
  0
LINE
  8
WHITE
 10
163.876639
 20
40.751479
 30
0.000000
 11
163.711856
 21
42.461638
 31
0.000000
  6
CONTINUOUS
  0
LINE
  8
WHITE
 10
163.711856
 20
42.461638
 30
0.000000
 11
167.525839
 21
42.829137
 31
0.000000
  6
CONTINUOUS
  0
LINE
  8
WHITE
 10
167.525839
 20
42.829137
 30
0.000000
 11
169.596745
 21
54.573825
 31
0.000000
  6
CONTINUOUS
  0
ARC
  8
WHITE
 10
169.087928
 20
54.663544
 30
0.000000
 40
0.516667
 50
-10.000000
 51
88.101240
  6
CONTINUOUS
  0
LINE
  8
WHITE
 10
169.105047
 20
55.179927
 30
0.000000
 11
166.472257
 21
55.267208
 31
0.000000
  6
CONTINUOUS
  0
ARC
  8
WHITE
 10
166.455138
 20
54.750825
 30
0.000000
 40
0.516667
 50
88.101240
 51
160.163280
  6
CONTINUOUS
  0
LINE
  8
WHITE
 10
165.969128
 20
54.926151
 30
0.000000
 11
162.125673
 21
44.271974
 31
0.000000
  6
CONTINUOUS
  0
LINE
  8
WHITE
 10
162.125673
 20
44.271974
 30
0.000000
 11
79.552847
 21
38.497919
 31
0.000000
  6
CONTINUOUS
  0
LINE
  8
WHITE
 10
79.552847
 20
38.497919
 30
0.000000
 11
48.139539
 21
41.438010
 31
0.000000
  6
CONTINUOUS
  0
LINE
  8
WHITE
 10
48.139539
 20
41.438010
 30
0.000000
 11
45.516697
 21
56.410495
 31
0.000000
  6
CONTINUOUS
  0
ARC
  8
WHITE
 10
44.498863
 20
56.232194
 30
0.000000
 40
1.033333
 50
9.936110
 51
90.000000
  6
CONTINUOUS
  0
LINE
  8
WHITE
 10
44.498863
 20
57.265527
 30
0.000000
 11
42.625000
 21
57.265527
 31
0.000000
  6
CONTINUOUS
  0
LINE
  8
WHITE
 10
3.672061
 20
76.903269
 30
0.000000
 11
8.928242
 21
76.903269
 31
0.000000
  6
CONTINUOUS
  0
LINE
  8
WHITE
 10
8.928242
 20
76.903269
 30
0.000000
 11
8.928242
 21
75.353269
 31
0.000000
  6
CONTINUOUS
  0
LINE
  8
WHITE
 10
8.928242
 20
75.353269
 30
0.000000
 11
3.701866
 21
75.353269
 31
0.000000
  6
CONTINUOUS
  0
ARC
  8
WHITE
 10
212.090295
 20
84.614426
 30
0.000000
 40
208.594118
 50
-177.455347
 51
-175.693621
  6
CONTINUOUS
  0
LINE
  8
WHITE
 10
4.085084
 20
68.951146
 30
0.000000
 11
6.639608
 21
41.657414
 31
0.000000
  6
CONTINUOUS
  0
ARC
  8
WHITE
 10
8.697282
 20
41.850000
 30
0.000000
 40
2.066667
 50
-174.653047
 51
-75.918093
  6
CONTINUOUS
  0
LINE
  8
WHITE
 10
9.200120
 20
39.845439
 30
0.000000
 11
16.865066
 21
41.768167
 31
0.000000
  6
CONTINUOUS
  0
ARC
  8
WHITE
 10
14.350875
 20
51.790972
 30
0.000000
 40
10.333333
 50
-75.918093
 51
-4.000000
  6
CONTINUOUS
  0
LINE
  8
WHITE
 10
24.659037
 20
51.070156
 30
0.000000
 11
24.731280
 21
52.103269
 31
0.000000
  6
CONTINUOUS
  0
LINE
  8
WHITE
 10
24.731280
 20
52.103269
 30
0.000000
 11
20.135473
 21
52.103269
 31
0.000000
  6
CONTINUOUS
  0
LINE
  8
WHITE
 10
20.135473
 20
52.103269
 30
0.000000
 11
20.135473
 21
53.653269
 31
0.000000
  6
CONTINUOUS
  0
LINE
  8
WHITE
 10
20.135473
 20
53.653269
 30
0.000000
 11
24.839666
 21
53.653269
 31
0.000000
  6
CONTINUOUS
  0
LINE
  8
WHITE
 10
24.839666
 20
53.653269
 30
0.000000
 11
25.237510
 21
59.342709
 31
0.000000
  6
CONTINUOUS
  0
ARC
  8
WHITE
 10
35.545672
 20
58.621892
 30
0.000000
 40
10.333333
 50
125.006286
 51
176.000000
  6
CONTINUOUS
  0
LINE
  8
WHITE
 10
29.617787
 20
67.085813
 30
0.000000
 11
33.063614
 21
69.499170
 31
0.000000
  6
CONTINUOUS
  0
ARC
  8
WHITE
 10
27.647941
 20
78.299639
 30
0.000000
 40
10.333333
 50
-58.392498
 51
0.000000
  6
CONTINUOUS
  0
LINE
  8
WHITE
 10
37.981274
 20
78.299639
 30
0.000000
 11
38.750000
 21
98.603269
 31
0.000000
  6
CONTINUOUS
  0
LINE
  8
WHITE
 10
38.750000
 20
98.603269
 30
0.000000
 11
34.100000
 21
98.603269
 31
0.000000
  6
CONTINUOUS
  0
LINE
  8
WHITE
 10
34.100000
 20
98.603269
 30
0.000000
 11
34.100000
 21
100.153269
 31
0.000000
  6
CONTINUOUS
  0
LINE
  8
WHITE
 10
34.100000
 20
100.153269
 30
0.000000
 11
38.479874
 21
100.153269
 31
0.000000
  6
CONTINUOUS
  0
ARC
  8
WHITE
 10
29.422171
 20
98.044239
 30
0.000000
 40
9.300000
 50
13.107423
 51
31.286779
  6
CONTINUOUS
  0
ARC
  8
WHITE
 10
25.355218
 20
95.572778
 30
0.000000
 40
14.059016
 50
31.286779
 51
42.159338
  6
CONTINUOUS
  0
ARC
  8
WHITE
 10
28.882986
 20
98.767003
 30
0.000000
 40
9.300000
 50
42.159338
 51
115.531515
  6
CONTINUOUS
  0
ARC
  8
WHITE
 10
41.528367
 20
72.292896
 30
0.000000
 40
38.639121
 50
115.531515
 51
159.603120
  6
CONTINUOUS
  0
ARC
  8
WHITE
 10
29.846188
 20
76.636735
 30
0.000000
 40
26.175484
 50
159.603120
 51
179.416571
  6
CONTINUOUS
  0
LINE
  8
WHITE
 10
44.157738
 20
82.668290
 30
0.000000
 11
49.413919
 21
82.668290
 31
0.000000
  6
CONTINUOUS
  0
LINE
  8
WHITE
 10
49.413919
 20
82.668290
 30
0.000000
 11
49.413919
 21
84.218290
 31
0.000000
  6
CONTINUOUS
  0
LINE
  8
WHITE
 10
49.413919
 20
84.218290
 30
0.000000
 11
44.187544
 21
84.218290
 31
0.000000
  6
CONTINUOUS
  0
ARC
  8
WHITE
 10
252.575972
 20
74.957134
 30
0.000000
 40
208.594118
 50
175.693621
 51
177.455347
  6
CONTINUOUS
  0
LINE
  8
WHITE
 10
44.570761
 20
90.620414
 30
0.000000
 11
47.125285
 21
117.914145
 31
0.000000
  6
CONTINUOUS
  0
ARC
  8
WHITE
 10
49.182959
 20
117.721560
 30
0.000000
 40
2.066667
 50
75.918093
 51
174.653047
  6
CONTINUOUS
  0
LINE
  8
WHITE
 10
49.685797
 20
119.726121
 30
0.000000
 11
57.350743
 21
117.803393
 31
0.000000
  6
CONTINUOUS
  0
ARC
  8
WHITE
 10
54.836552
 20
107.780587
 30
0.000000
 40
10.333333
 50
4.000000
 51
75.918093
  6
CONTINUOUS
  0
LINE
  8
WHITE
 10
65.144714
 20
108.501404
 30
0.000000
 11
65.216957
 21
107.468290
 31
0.000000
  6
CONTINUOUS
  0
LINE
  8
WHITE
 10
65.216957
 20
107.468290
 30
0.000000
 11
60.621150
 21
107.468290
 31
0.000000
  6
CONTINUOUS
  0
LINE
  8
WHITE
 10
60.621150
 20
107.468290
 30
0.000000
 11
60.621150
 21
105.918290
 31
0.000000
  6
CONTINUOUS
  0
LINE
  8
WHITE
 10
60.621150
 20
105.918290
 30
0.000000
 11
65.325343
 21
105.918290
 31
0.000000
  6
CONTINUOUS
  0
LINE
  8
WHITE
 10
65.325343
 20
105.918290
 30
0.000000
 11
65.723188
 21
100.228851
 31
0.000000
  6
CONTINUOUS
  0
ARC
  8
WHITE
 10
76.031349
 20
100.949668
 30
0.000000
 40
10.333333
 50
-176.000000
 51
-125.006286
  6
CONTINUOUS
  0
LINE
  8
WHITE
 10
70.103464
 20
92.485747
 30
0.000000
 11
73.549291
 21
90.072390
 31
0.000000
  6
CONTINUOUS
  0
ARC
  8
WHITE
 10
68.133618
 20
81.271920
 30
0.000000
 40
10.333333
 50
0.000000
 51
58.392498
  6
CONTINUOUS
  0
LINE
  8
WHITE
 10
78.466951
 20
81.271920
 30
0.000000
 11
79.235677
 21
60.968290
 31
0.000000
  6
CONTINUOUS
  0
LINE
  8
WHITE
 10
79.235677
 20
60.968290
 30
0.000000
 11
74.585677
 21
60.968290
 31
0.000000
  6
CONTINUOUS
  0
LINE
  8
WHITE
 10
74.585677
 20
60.968290
 30
0.000000
 11
74.585677
 21
59.418290
 31
0.000000
  6
CONTINUOUS
  0
LINE
  8
WHITE
 10
74.585677
 20
59.418290
 30
0.000000
 11
78.965551
 21
59.418290
 31
0.000000
  6
CONTINUOUS
  0
ARC
  8
WHITE
 10
69.907848
 20
61.527321
 30
0.000000
 40
9.300000
 50
-31.286779
 51
-13.107423
  6
CONTINUOUS
  0
ARC
  8
WHITE
 10
65.840895
 20
63.998782
 30
0.000000
 40
14.059016
 50
-42.159338
 51
-31.286779
  6
CONTINUOUS
  0
ARC
  8
WHITE
 10
69.368663
 20
60.804556
 30
0.000000
 40
9.300000
 50
-115.531515
 51
-42.159338
  6
CONTINUOUS
  0
ARC
  8
WHITE
 10
82.014044
 20
87.278664
 30
0.000000
 40
38.639121
 50
-159.603120
 51
-115.531515
  6
CONTINUOUS
  0
ARC
  8
WHITE
 10
70.331865
 20
82.934825
 30
0.000000
 40
26.175484
 50
-179.416571
 51
-159.603120
  6
CONTINUOUS
  0
ARC
  8
WHITE
 10
98.709446
 20
129.145677
 30
0.000000
 40
4.934167
 50
45.734450
 51
134.265550
  6
CONTINUOUS
  0
ARC
  8
WHITE
 10
91.659218
 20
136.379010
 30
0.000000
 40
5.166667
 50
-90.000000
 51
-45.734450
  6
CONTINUOUS
  0
LINE
  8
WHITE
 10
91.659218
 20
131.212344
 30
0.000000
 11
89.446164
 21
131.212344
 31
0.000000
  6
CONTINUOUS
  0
ARC
  8
WHITE
 10
89.446164
 20
133.795677
 30
0.000000
 40
2.583333
 50
-135.000000
 51
-90.000000
  6
CONTINUOUS
  0
LINE
  8
WHITE
 10
87.619472
 20
131.968985
 30
0.000000
 11
87.431425
 21
132.157031
 31
0.000000
  6
CONTINUOUS
  0
ARC
  8
WHITE
 10
85.970071
 20
130.695677
 30
0.000000
 40
2.066667
 50
45.000000
 51
90.000000
  6
CONTINUOUS
  0
LINE
  8
WHITE
 10
85.970071
 20
132.762344
 30
0.000000
 11
10.876113
 21
132.762344
 31
0.000000
  6
CONTINUOUS
  0
ARC
  8
WHITE
 10
10.876113
 20
129.145677
 30
0.000000
 40
3.616667
 50
90.000000
 51
270.000000
  6
CONTINUOUS
  0
LINE
  8
WHITE
 10
10.876113
 20
125.529010
 30
0.000000
 11
85.970071
 21
125.529010
 31
0.000000
  6
CONTINUOUS
  0
ARC
  8
WHITE
 10
85.970071
 20
127.595677
 30
0.000000
 40
2.066667
 50
-90.000000
 51
-45.000000
  6
CONTINUOUS
  0
LINE
  8
WHITE
 10
87.431425
 20
126.134323
 30
0.000000
 11
87.619472
 21
126.322370
 31
0.000000
  6
CONTINUOUS
  0
ARC
  8
WHITE
 10
89.446164
 20
124.495677
 30
0.000000
 40
2.583333
 50
90.000000
 51
135.000000
  6
CONTINUOUS
  0
LINE
  8
WHITE
 10
89.446164
 20
127.079010
 30
0.000000
 11
91.659218
 21
127.079010
 31
0.000000
  6
CONTINUOUS
  0
ARC
  8
WHITE
 10
91.659218
 20
121.912344
 30
0.000000
 40
5.166667
 50
45.734450
 51
90.000000
  6
CONTINUOUS
  0
ARC
  8
WHITE
 10
98.709446
 20
129.145677
 30
0.000000
 40
4.934167
 50
-134.265550
 51
-45.734450
  6
CONTINUOUS
  0
ARC
  8
WHITE
 10
105.759675
 20
121.912344
 30
0.000000
 40
5.166667
 50
90.000000
 51
134.265550
  6
CONTINUOUS
  0
LINE
  8
WHITE
 10
105.759675
 20
127.079010
 30
0.000000
 11
107.972728
 21
127.079010
 31
0.000000
  6
CONTINUOUS
  0
ARC
  8
WHITE
 10
107.972728
 20
124.495677
 30
0.000000
 40
2.583333
 50
45.000000
 51
90.000000
  6
CONTINUOUS
  0
LINE
  8
WHITE
 10
109.799420
 20
126.322370
 30
0.000000
 11
109.987467
 21
126.134323
 31
0.000000
  6
CONTINUOUS
  0
ARC
  8
WHITE
 10
111.448821
 20
127.595677
 30
0.000000
 40
2.066667
 50
-135.000000
 51
-90.000000
  6
CONTINUOUS
  0
LINE
  8
WHITE
 10
111.448821
 20
125.529010
 30
0.000000
 11
186.542779
 21
125.529010
 31
0.000000
  6
CONTINUOUS
  0
ARC
  8
WHITE
 10
186.542779
 20
129.145677
 30
0.000000
 40
3.616667
 50
-90.000000
 51
90.000000
  6
CONTINUOUS
  0
LINE
  8
WHITE
 10
186.542779
 20
132.762344
 30
0.000000
 11
111.448821
 21
132.762344
 31
0.000000
  6
CONTINUOUS
  0
ARC
  8
WHITE
 10
111.448821
 20
130.695677
 30
0.000000
 40
2.066667
 50
90.000000
 51
135.000000
  6
CONTINUOUS
  0
LINE
  8
WHITE
 10
109.987467
 20
132.157031
 30
0.000000
 11
109.799420
 21
131.968985
 31
0.000000
  6
CONTINUOUS
  0
ARC
  8
WHITE
 10
107.972728
 20
133.795677
 30
0.000000
 40
2.583333
 50
-90.000000
 51
-45.000000
  6
CONTINUOUS
  0
LINE
  8
WHITE
 10
107.972728
 20
131.212344
 30
0.000000
 11
105.759675
 21
131.212344
 31
0.000000
  6
CONTINUOUS
  0
ARC
  8
WHITE
 10
105.759675
 20
136.379010
 30
0.000000
 40
5.166667
 50
-134.265550
 51
-90.000000
  6
CONTINUOUS
  0
CIRCLE
  8
WHITE
 10
98.709446
 20
129.145677
 30
0.000000
 40
2.867500
  6
CONTINUOUS
  0
LINE
  8
WHITE
 10
107.183595
 20
78.130554
 30
0.000000
 11
107.183595
 21
76.410447
 31
0.000000
  6
CONTINUOUS
  0
LINE
  8
WHITE
 10
107.183595
 20
76.410447
 30
0.000000
 11
108.733595
 21
76.410447
 31
0.000000
  6
CONTINUOUS
  0
LINE
  8
WHITE
 10
108.733595
 20
76.410447
 30
0.000000
 11
108.733595
 21
78.294638
 31
0.000000
  6
CONTINUOUS
  0
ARC
  8
WHITE
 10
110.437241
 20
54.798384
 30
0.000000
 40
23.557936
 50
87.493492
 51
94.147097
  6
CONTINUOUS
  0
ARC
  8
WHITE
 10
103.257320
 20
-109.221312
 30
0.000000
 40
187.734706
 50
85.693621
 51
87.493492
  6
CONTINUOUS
  0
LINE
  8
WHITE
 10
117.354272
 20
77.983378
 30
0.000000
 11
141.678833
 21
75.706750
 31
0.000000
  6
CONTINUOUS
  0
ARC
  8
WHITE
 10
141.486247
 20
73.649076
 30
0.000000
 40
2.066667
 50
-14.081907
 51
84.653047
  6
CONTINUOUS
  0
LINE
  8
WHITE
 10
143.490808
 20
73.146238
 30
0.000000
 11
142.318697
 21
68.473623
 31
0.000000
  6
CONTINUOUS
  0
ARC
  8
WHITE
 10
132.295892
 20
70.987813
 30
0.000000
 40
10.333333
 50
-86.000000
 51
-14.081907
  6
CONTINUOUS
  0
LINE
  8
WHITE
 10
133.016709
 20
60.679651
 30
0.000000
 11
131.983595
 21
60.607409
 31
0.000000
  6
CONTINUOUS
  0
LINE
  8
WHITE
 10
131.983595
 20
60.607409
 30
0.000000
 11
131.983595
 21
65.203216
 31
0.000000
  6
CONTINUOUS
  0
LINE
  8
WHITE
 10
131.983595
 20
65.203216
 30
0.000000
 11
130.433595
 21
65.203216
 31
0.000000
  6
CONTINUOUS
  0
LINE
  8
WHITE
 10
130.433595
 20
65.203216
 30
0.000000
 11
130.433595
 21
60.499023
 31
0.000000
  6
CONTINUOUS
  0
LINE
  8
WHITE
 10
130.433595
 20
60.499023
 30
0.000000
 11
124.744155
 21
60.101178
 31
0.000000
  6
CONTINUOUS
  0
ARC
  8
WHITE
 10
125.464972
 20
49.793016
 30
0.000000
 40
10.333333
 50
94.000000
 51
144.993714
  6
CONTINUOUS
  0
LINE
  8
WHITE
 10
117.001052
 20
55.720901
 30
0.000000
 11
114.587694
 21
52.275075
 31
0.000000
  6
CONTINUOUS
  0
ARC
  8
WHITE
 10
105.787225
 20
57.690748
 30
0.000000
 40
10.333333
 50
-90.000000
 51
-31.607502
  6
CONTINUOUS
  0
LINE
  8
WHITE
 10
105.787225
 20
47.357415
 30
0.000000
 11
91.487213
 21
46.815995
 31
0.000000
  6
CONTINUOUS
  0
ARC
  8
WHITE
 10
91.170488
 20
55.180000
 30
0.000000
 40
8.370000
 50
-121.286779
 51
-87.831386
  6
CONTINUOUS
  0
ARC
  8
WHITE
 10
93.394803
 20
58.840258
 30
0.000000
 40
12.653114
 50
-128.699662
 51
-121.286779
  6
CONTINUOUS
  0
LINE
  8
WHITE
 10
85.483595
 20
48.965336
 30
0.000000
 11
85.483595
 21
51.238689
 31
0.000000
  6
CONTINUOUS
  0
LINE
  8
WHITE
 10
85.483595
 20
51.238689
 30
0.000000
 11
83.933595
 21
51.238689
 31
0.000000
  6
CONTINUOUS
  0
LINE
  8
WHITE
 10
83.933595
 20
51.238689
 30
0.000000
 11
83.933595
 21
50.500369
 31
0.000000
  6
CONTINUOUS
  0
ARC
  8
WHITE
 10
90.520000
 20
55.665266
 30
0.000000
 40
8.370000
 50
154.468485
 51
218.102674
  6
CONTINUOUS
  0
ARC
  8
WHITE
 10
114.346697
 20
44.284423
 30
0.000000
 40
34.775209
 50
110.396880
 51
154.468485
  6
CONTINUOUS
  0
ARC
  8
WHITE
 10
110.437241
 20
54.798384
 30
0.000000
 40
23.557936
 50
97.938642
 51
110.396880
  6
CONTINUOUS
  0
LINE
  8
WHITE
 10
115.944014
 20
102.300118
 30
0.000000
 11
115.944014
 21
107.004311
 31
0.000000
  6
CONTINUOUS
  0
LINE
  8
WHITE
 10
115.944014
 20
107.004311
 30
0.000000
 11
110.254575
 21
107.402155
 31
0.000000
  6
CONTINUOUS
  0
ARC
  8
WHITE
 10
110.975392
 20
117.710317
 30
0.000000
 40
10.333333
 50
-144.993714
 51
-94.000000
  6
CONTINUOUS
  0
LINE
  8
WHITE
 10
102.511471
 20
111.782432
 30
0.000000
 11
100.098114
 21
115.228259
 31
0.000000
  6
CONTINUOUS
  0
ARC
  8
WHITE
 10
91.297644
 20
109.812585
 30
0.000000
 40
10.333333
 50
31.607502
 51
90.000000
  6
CONTINUOUS
  0
LINE
  8
WHITE
 10
91.297644
 20
120.145919
 30
0.000000
 11
76.997632
 21
120.687339
 31
0.000000
  6
CONTINUOUS
  0
ARC
  8
WHITE
 10
76.680908
 20
112.323333
 30
0.000000
 40
8.370000
 50
87.831386
 51
121.286779
  6
CONTINUOUS
  0
ARC
  8
WHITE
 10
78.905223
 20
108.663075
 30
0.000000
 40
12.653114
 50
121.286779
 51
128.699662
  6
CONTINUOUS
  0
LINE
  8
WHITE
 10
70.994014
 20
118.537997
 30
0.000000
 11
70.994014
 21
116.264645
 31
0.000000
  6
CONTINUOUS
  0
LINE
  8
WHITE
 10
70.994014
 20
116.264645
 30
0.000000
 11
69.444014
 21
116.264645
 31
0.000000
  6
CONTINUOUS
  0
LINE
  8
WHITE
 10
69.444014
 20
116.264645
 30
0.000000
 11
69.444014
 21
117.002965
 31
0.000000
  6
CONTINUOUS
  0
ARC
  8
WHITE
 10
76.030419
 20
111.838067
 30
0.000000
 40
8.370000
 50
141.897326
 51
205.531515
  6
CONTINUOUS
  0
ARC
  8
WHITE
 10
99.857116
 20
123.218910
 30
0.000000
 40
34.775209
 50
-154.468485
 51
-110.396880
  6
CONTINUOUS
  0
ARC
  8
WHITE
 10
95.947661
 20
112.704949
 30
0.000000
 40
23.557936
 50
-110.396880
 51
-97.938642
  6
CONTINUOUS
  0
LINE
  8
WHITE
 10
92.694014
 20
89.372780
 30
0.000000
 11
92.694014
 21
91.092886
 31
0.000000
  6
CONTINUOUS
  0
LINE
  8
WHITE
 10
92.694014
 20
91.092886
 30
0.000000
 11
94.244014
 21
91.092886
 31
0.000000
  6
CONTINUOUS
  0
LINE
  8
WHITE
 10
94.244014
 20
91.092886
 30
0.000000
 11
94.244014
 21
89.208695
 31
0.000000
  6
CONTINUOUS
  0
ARC
  8
WHITE
 10
95.947661
 20
112.704949
 30
0.000000
 40
23.557936
 50
-94.147097
 51
-87.493492
  6
CONTINUOUS
  0
ARC
  8
WHITE
 10
88.767739
 20
276.724645
 30
0.000000
 40
187.734706
 50
-87.493492
 51
-85.693621
  6
CONTINUOUS
  0
LINE
  8
WHITE
 10
102.864692
 20
89.519955
 30
0.000000
 11
127.189252
 21
91.796583
 31
0.000000
  6
CONTINUOUS
  0
ARC
  8
WHITE
 10
126.996667
 20
93.854257
 30
0.000000
 40
2.066667
 50
-84.653047
 51
14.081907
  6
CONTINUOUS
  0
LINE
  8
WHITE
 10
129.001228
 20
94.357095
 30
0.000000
 11
127.829116
 21
99.029710
 31
0.000000
  6
CONTINUOUS
  0
ARC
  8
WHITE
 10
117.806311
 20
96.515520
 30
0.000000
 40
10.333333
 50
14.081907
 51
86.000000
  6
CONTINUOUS
  0
LINE
  8
WHITE
 10
118.527128
 20
106.823682
 30
0.000000
 11
117.494014
 21
106.895924
 31
0.000000
  6
CONTINUOUS
  0
LINE
  8
WHITE
 10
117.494014
 20
106.895924
 30
0.000000
 11
117.494014
 21
102.300118
 31
0.000000
  6
CONTINUOUS
  0
LINE
  8
WHITE
 10
117.494014
 20
102.300118
 30
0.000000
 11
115.944014
 21
102.300118
 31
0.000000
  6
CONTINUOUS
  0
LINE
  8
WHITE
 10
141.566667
 20
83.103383
 30
0.000000
 11
141.566667
 21
88.659956
 31
0.000000
  6
CONTINUOUS
  0
LINE
  8
WHITE
 10
141.566667
 20
88.659956
 30
0.000000
 11
140.016667
 21
88.659956
 31
0.000000
  6
CONTINUOUS
  0
LINE
  8
WHITE
 10
140.016667
 20
88.659956
 30
0.000000
 11
140.016667
 21
83.103383
 31
0.000000
  6
CONTINUOUS
  0
LINE
  8
WHITE
 10
140.016667
 20
83.103383
 30
0.000000
 11
139.474167
 21
83.103383
 31
0.000000
  6
CONTINUOUS
  0
ARC
  8
WHITE
 10
139.474167
 20
84.498383
 30
0.000000
 40
1.395000
 50
180.000000
 51
270.000000
  6
CONTINUOUS
  0
LINE
  8
WHITE
 10
138.079167
 20
84.498383
 30
0.000000
 11
138.079167
 21
88.722133
 31
0.000000
  6
CONTINUOUS
  0
LINE
  8
WHITE
 10
138.079167
 20
88.722133
 30
0.000000
 11
137.924167
 21
88.722133
 31
0.000000
  6
CONTINUOUS
  0
ARC
  8
WHITE
 10
137.924167
 20
89.342133
 30
0.000000
 40
0.620000
 50
180.000000
 51
270.000000
  6
CONTINUOUS
  0
LINE
  8
WHITE
 10
137.304167
 20
89.342133
 30
0.000000
 11
134.094451
 21
107.664790
 31
0.000000
  6
CONTINUOUS
  0
ARC
  8
WHITE
 10
253.984583
 20
404.057007
 30
0.000000
 40
319.721739
 50
-113.892411
 51
-112.023246
  6
CONTINUOUS
  0
ARC
  8
WHITE
 10
126.583333
 20
116.456911
 30
0.000000
 40
5.166667
 50
180.000000
 51
246.107589
  6
CONTINUOUS
  0
LINE
  8
WHITE
 10
121.416667
 20
116.456911
 30
0.000000
 11
121.416667
 21
117.283333
 31
0.000000
  6
CONTINUOUS
  0
ARC
  8
WHITE
 10
122.450000
 20
117.283333
 30
0.000000
 40
1.033333
 50
90.000000
 51
180.000000
  6
CONTINUOUS
  0
LINE
  8
WHITE
 10
122.450000
 20
118.316667
 30
0.000000
 11
124.516667
 21
118.316667
 31
0.000000
  6
CONTINUOUS
  0
LINE
  8
WHITE
 10
124.516667
 20
118.316667
 30
0.000000
 11
124.516667
 21
113.666667
 31
0.000000
  6
CONTINUOUS
  0
LINE
  8
WHITE
 10
124.516667
 20
113.666667
 30
0.000000
 11
126.066667
 21
113.666667
 31
0.000000
  6
CONTINUOUS
  0
LINE
  8
WHITE
 10
126.066667
 20
113.666667
 30
0.000000
 11
126.066667
 21
118.316667
 31
0.000000
  6
CONTINUOUS
  0
LINE
  8
WHITE
 10
126.066667
 20
118.316667
 30
0.000000
 11
132.266667
 21
118.316667
 31
0.000000
  6
CONTINUOUS
  0
LINE
  8
WHITE
 10
132.266667
 20
118.316667
 30
0.000000
 11
132.266667
 21
113.666667
 31
0.000000
  6
CONTINUOUS
  0
LINE
  8
WHITE
 10
132.266667
 20
113.666667
 30
0.000000
 11
133.816667
 21
113.666667
 31
0.000000
  6
CONTINUOUS
  0
LINE
  8
WHITE
 10
133.816667
 20
113.666667
 30
0.000000
 11
133.816667
 21
118.316667
 31
0.000000
  6
CONTINUOUS
  0
LINE
  8
WHITE
 10
133.816667
 20
118.316667
 30
0.000000
 11
140.016667
 21
118.316667
 31
0.000000
  6
CONTINUOUS
  0
LINE
  8
WHITE
 10
140.016667
 20
118.316667
 30
0.000000
 11
140.016667
 21
113.666667
 31
0.000000
  6
CONTINUOUS
  0
LINE
  8
WHITE
 10
140.016667
 20
113.666667
 30
0.000000
 11
141.566667
 21
113.666667
 31
0.000000
  6
CONTINUOUS
  0
LINE
  8
WHITE
 10
141.566667
 20
113.666667
 30
0.000000
 11
141.566667
 21
118.316667
 31
0.000000
  6
CONTINUOUS
  0
LINE
  8
WHITE
 10
141.566667
 20
118.316667
 30
0.000000
 11
147.766667
 21
118.316667
 31
0.000000
  6
CONTINUOUS
  0
LINE
  8
WHITE
 10
147.766667
 20
118.316667
 30
0.000000
 11
147.766667
 21
113.666667
 31
0.000000
  6
CONTINUOUS
  0
LINE
  8
WHITE
 10
147.766667
 20
113.666667
 30
0.000000
 11
149.316667
 21
113.666667
 31
0.000000
  6
CONTINUOUS
  0
LINE
  8
WHITE
 10
149.316667
 20
113.666667
 30
0.000000
 11
149.316667
 21
118.316667
 31
0.000000
  6
CONTINUOUS
  0
LINE
  8
WHITE
 10
149.316667
 20
118.316667
 30
0.000000
 11
155.516667
 21
118.316667
 31
0.000000
  6
CONTINUOUS
  0
LINE
  8
WHITE
 10
155.516667
 20
118.316667
 30
0.000000
 11
155.516667
 21
113.666667
 31
0.000000
  6
CONTINUOUS
  0
LINE
  8
WHITE
 10
155.516667
 20
113.666667
 30
0.000000
 11
157.066667
 21
113.666667
 31
0.000000
  6
CONTINUOUS
  0
LINE
  8
WHITE
 10
157.066667
 20
113.666667
 30
0.000000
 11
157.066667
 21
118.316667
 31
0.000000
  6
CONTINUOUS
  0
LINE
  8
WHITE
 10
157.066667
 20
118.316667
 30
0.000000
 11
159.133333
 21
118.316667
 31
0.000000
  6
CONTINUOUS
  0
ARC
  8
WHITE
 10
159.133333
 20
117.283333
 30
0.000000
 40
1.033333
 50
0.000000
 51
90.000000
  6
CONTINUOUS
  0
LINE
  8
WHITE
 10
160.166667
 20
117.283333
 30
0.000000
 11
160.166667
 21
116.456911
 31
0.000000
  6
CONTINUOUS
  0
ARC
  8
WHITE
 10
155.000000
 20
116.456911
 30
0.000000
 40
5.166667
 50
-66.107589
 51
0.000000
  6
CONTINUOUS
  0
ARC
  8
WHITE
 10
27.598751
 20
404.057007
 30
0.000000
 40
319.721739
 50
-67.976754
 51
-66.107589
  6
CONTINUOUS
  0
LINE
  8
WHITE
 10
147.488883
 20
107.664790
 30
0.000000
 11
144.279167
 21
89.342133
 31
0.000000
  6
CONTINUOUS
  0
ARC
  8
WHITE
 10
143.659167
 20
89.342133
 30
0.000000
 40
0.620000
 50
-90.000000
 51
0.000000
  6
CONTINUOUS
  0
LINE
  8
WHITE
 10
143.659167
 20
88.722133
 30
0.000000
 11
143.504167
 21
88.722133
 31
0.000000
  6
CONTINUOUS
  0
LINE
  8
WHITE
 10
143.504167
 20
88.722133
 30
0.000000
 11
143.504167
 21
84.498383
 31
0.000000
  6
CONTINUOUS
  0
ARC
  8
WHITE
 10
142.109167
 20
84.498383
 30
0.000000
 40
1.395000
 50
-90.000000
 51
0.000000
  6
CONTINUOUS
  0
LINE
  8
WHITE
 10
142.109167
 20
83.103383
 30
0.000000
 11
141.566667
 21
83.103383
 31
0.000000
  6
CONTINUOUS
  0
ARC
  8
WHITE
 10
130.198625
 20
82.605353
 30
0.000000
 40
31.000000
 50
-23.082021
 51
23.082021
  6
CONTINUOUS
  0
ARC
  8
WHITE
 10
-135.409369
 20
-30.587563
 30
0.000000
 40
319.721739
 50
23.082021
 51
23.852906
  6
CONTINUOUS
  0
ARC
  8
WHITE
 10
178.966138
 20
47.955027
 30
0.000000
 40
55.298023
 50
88.584579
 51
113.400880
  6
CONTINUOUS
  0
LINE
  8
WHITE
 10
180.332068
 20
103.236178
 30
0.000000
 11
183.882374
 21
103.925820
 31
0.000000
  6
CONTINUOUS
  0
ARC
  8
WHITE
 10
183.685333
 20
104.940193
 30
0.000000
 40
1.033333
 50
-79.007270
 51
10.992730
  6
CONTINUOUS
  0
LINE
  8
WHITE
 10
184.699706
 20
105.137234
 30
0.000000
 11
184.650446
 21
105.390827
 31
0.000000
  6
CONTINUOUS
  0
LINE
  8
WHITE
 10
184.650446
 20
105.390827
 30
0.000000
 11
182.114514
 21
104.898226
 31
0.000000
  6
CONTINUOUS
  0
LINE
  8
WHITE
 10
182.114514
 20
104.898226
 30
0.000000
 11
181.818953
 21
106.419785
 31
0.000000
  6
CONTINUOUS
  0
LINE
  8
WHITE
 10
181.818953
 20
106.419785
 30
0.000000
 11
184.354885
 21
106.912387
 31
0.000000
  6
CONTINUOUS
  0
LINE
  8
WHITE
 10
184.354885
 20
106.912387
 30
0.000000
 11
184.305625
 21
107.165980
 31
0.000000
  6
CONTINUOUS
  0
ARC
  8
WHITE
 10
183.291252
 20
106.968939
 30
0.000000
 40
1.033333
 50
10.992730
 51
100.992730
  6
CONTINUOUS
  0
LINE
  8
WHITE
 10
183.094212
 20
107.983312
 30
0.000000
 11
179.543906
 21
107.293670
 31
0.000000
  6
CONTINUOUS
  0
ARC
  8
WHITE
 10
157.581633
 20
158.043350
 30
0.000000
 40
55.298023
 50
-91.415421
 51
-66.599120
  6
CONTINUOUS
  0
LINE
  8
WHITE
 10
156.215703
 20
102.762199
 30
0.000000
 11
152.190727
 21
101.980353
 31
0.000000
  6
CONTINUOUS
  0
LINE
  8
WHITE
 10
152.190727
 20
101.980353
 30
0.000000
 11
151.364305
 21
101.980353
 31
0.000000
  6
CONTINUOUS
  0
ARC
  8
WHITE
 10
151.364305
 20
100.947020
 30
0.000000
 40
1.033333
 50
90.000000
 51
180.000000
  6
CONTINUOUS
  0
LINE
  8
WHITE
 10
150.330971
 20
100.947020
 30
0.000000
 11
150.330971
 21
98.880353
 31
0.000000
  6
CONTINUOUS
  0
LINE
  8
WHITE
 10
150.330971
 20
98.880353
 30
0.000000
 11
154.980971
 21
98.880353
 31
0.000000
  6
CONTINUOUS
  0
LINE
  8
WHITE
 10
154.980971
 20
98.880353
 30
0.000000
 11
154.980971
 21
97.330353
 31
0.000000
  6
CONTINUOUS
  0
LINE
  8
WHITE
 10
154.980971
 20
97.330353
 30
0.000000
 11
150.330971
 21
97.330353
 31
0.000000
  6
CONTINUOUS
  0
LINE
  8
WHITE
 10
150.330971
 20
97.330353
 30
0.000000
 11
150.330971
 21
91.130353
 31
0.000000
  6
CONTINUOUS
  0
LINE
  8
WHITE
 10
150.330971
 20
91.130353
 30
0.000000
 11
154.980971
 21
91.130353
 31
0.000000
  6
CONTINUOUS
  0
LINE
  8
WHITE
 10
154.980971
 20
91.130353
 30
0.000000
 11
154.980971
 21
89.580353
 31
0.000000
  6
CONTINUOUS
  0
LINE
  8
WHITE
 10
154.980971
 20
89.580353
 30
0.000000
 11
150.330971
 21
89.580353
 31
0.000000
  6
CONTINUOUS
  0
LINE
  8
WHITE
 10
150.330971
 20
89.580353
 30
0.000000
 11
150.330971
 21
83.380353
 31
0.000000
  6
CONTINUOUS
  0
LINE
  8
WHITE
 10
150.330971
 20
83.380353
 30
0.000000
 11
154.980971
 21
83.380353
 31
0.000000
  6
CONTINUOUS
  0
LINE
  8
WHITE
 10
154.980971
 20
83.380353
 30
0.000000
 11
154.980971
 21
81.830353
 31
0.000000
  6
CONTINUOUS
  0
LINE
  8
WHITE
 10
154.980971
 20
81.830353
 30
0.000000
 11
150.330971
 21
81.830353
 31
0.000000
  6
CONTINUOUS
  0
LINE
  8
WHITE
 10
150.330971
 20
81.830353
 30
0.000000
 11
150.330971
 21
75.630353
 31
0.000000
  6
CONTINUOUS
  0
LINE
  8
WHITE
 10
150.330971
 20
75.630353
 30
0.000000
 11
154.980971
 21
75.630353
 31
0.000000
  6
CONTINUOUS
  0
LINE
  8
WHITE
 10
154.980971
 20
75.630353
 30
0.000000
 11
154.980971
 21
74.080353
 31
0.000000
  6
CONTINUOUS
  0
LINE
  8
WHITE
 10
154.980971
 20
74.080353
 30
0.000000
 11
150.330971
 21
74.080353
 31
0.000000
  6
CONTINUOUS
  0
LINE
  8
WHITE
 10
150.330971
 20
74.080353
 30
0.000000
 11
150.330971
 21
67.880353
 31
0.000000
  6
CONTINUOUS
  0
LINE
  8
WHITE
 10
150.330971
 20
67.880353
 30
0.000000
 11
154.980971
 21
67.880353
 31
0.000000
  6
CONTINUOUS
  0
LINE
  8
WHITE
 10
154.980971
 20
67.880353
 30
0.000000
 11
154.980971
 21
66.330353
 31
0.000000
  6
CONTINUOUS
  0
LINE
  8
WHITE
 10
154.980971
 20
66.330353
 30
0.000000
 11
150.330971
 21
66.330353
 31
0.000000
  6
CONTINUOUS
  0
LINE
  8
WHITE
 10
150.330971
 20
66.330353
 30
0.000000
 11
150.330971
 21
64.263686
 31
0.000000
  6
CONTINUOUS
  0
ARC
  8
WHITE
 10
151.364305
 20
64.263686
 30
0.000000
 40
1.033333
 50
180.000000
 51
270.000000
  6
CONTINUOUS
  0
LINE
  8
WHITE
 10
151.364305
 20
63.230353
 30
0.000000
 11
152.190727
 21
63.230353
 31
0.000000
  6
CONTINUOUS
  0
LINE
  8
WHITE
 10
152.190727
 20
63.230353
 30
0.000000
 11
156.215703
 21
62.448507
 31
0.000000
  6
CONTINUOUS
  0
ARC
  8
WHITE
 10
157.581633
 20
7.167356
 30
0.000000
 40
55.298023
 50
66.599120
 51
91.415421
  6
CONTINUOUS
  0
LINE
  8
WHITE
 10
179.543906
 20
57.917036
 30
0.000000
 11
183.094212
 21
57.227394
 31
0.000000
  6
CONTINUOUS
  0
ARC
  8
WHITE
 10
183.291252
 20
58.241767
 30
0.000000
 40
1.033333
 50
-100.992730
 51
-10.992730
  6
CONTINUOUS
  0
LINE
  8
WHITE
 10
184.305625
 20
58.044726
 30
0.000000
 11
184.354885
 21
58.298319
 31
0.000000
  6
CONTINUOUS
  0
LINE
  8
WHITE
 10
184.354885
 20
58.298319
 30
0.000000
 11
181.818953
 21
58.790921
 31
0.000000
  6
CONTINUOUS
  0
LINE
  8
WHITE
 10
181.818953
 20
58.790921
 30
0.000000
 11
182.114514
 21
60.312480
 31
0.000000
  6
CONTINUOUS
  0
LINE
  8
WHITE
 10
182.114514
 20
60.312480
 30
0.000000
 11
184.650446
 21
59.819879
 31
0.000000
  6
CONTINUOUS
  0
LINE
  8
WHITE
 10
184.650446
 20
59.819879
 30
0.000000
 11
184.699706
 21
60.073472
 31
0.000000
  6
CONTINUOUS
  0
ARC
  8
WHITE
 10
183.685333
 20
60.270513
 30
0.000000
 40
1.033333
 50
-10.992730
 51
79.007270
  6
CONTINUOUS
  0
LINE
  8
WHITE
 10
183.882374
 20
61.284886
 30
0.000000
 11
180.332068
 21
61.974528
 31
0.000000
  6
CONTINUOUS
  0
ARC
  8
WHITE
 10
178.966138
 20
117.255679
 30
0.000000
 40
55.298023
 50
-113.400880
 51
-88.584579
  6
CONTINUOUS
  0
ARC
  8
WHITE
 10
-135.409369
 20
195.798269
 30
0.000000
 40
319.721739
 50
-23.852906
 51
-23.082021
  6
CONTINUOUS
  0
LINE
  8
WHITE
 10
74.581154
 20
11.654342
 30
0.000000
 11
74.581154
 21
13.721009
 31
0.000000
  6
CONTINUOUS
  0
ARC
  8
WHITE
 10
75.097821
 20
13.721009
 30
0.000000
 40
0.516667
 50
90.000000
 51
180.000000
  6
CONTINUOUS
  0
LINE
  8
WHITE
 10
75.097821
 20
14.237675
 30
0.000000
 11
83.881154
 21
14.237675
 31
0.000000
  6
CONTINUOUS
  0
ARC
  8
WHITE
 10
83.881154
 20
13.721009
 30
0.000000
 40
0.516667
 50
0.000000
 51
90.000000
  6
CONTINUOUS
  0
LINE
  8
WHITE
 10
84.397821
 20
13.721009
 30
0.000000
 11
84.397821
 21
11.654342
 31
0.000000
  6
CONTINUOUS
  0
LINE
  8
WHITE
 10
84.397821
 20
11.654342
 30
0.000000
 11
121.081154
 21
11.654342
 31
0.000000
  6
CONTINUOUS
  0
LINE
  8
WHITE
 10
121.081154
 20
11.654342
 30
0.000000
 11
121.081154
 21
13.721009
 31
0.000000
  6
CONTINUOUS
  0
ARC
  8
WHITE
 10
121.597821
 20
13.721009
 30
0.000000
 40
0.516667
 50
90.000000
 51
180.000000
  6
CONTINUOUS
  0
LINE
  8
WHITE
 10
121.597821
 20
14.237675
 30
0.000000
 11
130.381154
 21
14.237675
 31
0.000000
  6
CONTINUOUS
  0
ARC
  8
WHITE
 10
130.381154
 20
13.721009
 30
0.000000
 40
0.516667
 50
0.000000
 51
90.000000
  6
CONTINUOUS
  0
LINE
  8
WHITE
 10
130.897821
 20
13.721009
 30
0.000000
 11
130.897821
 21
11.654342
 31
0.000000
  6
CONTINUOUS
  0
LINE
  8
WHITE
 10
130.897821
 20
11.654342
 30
0.000000
 11
141.472197
 21
11.654342
 31
0.000000
  6
CONTINUOUS
  0
ARC
  8
WHITE
 10
141.472197
 20
2.354342
 30
0.000000
 40
9.300000
 50
30.823902
 51
90.000000
  6
CONTINUOUS
  0
ARC
  8
WHITE
 10
147.683795
 20
6.060710
 30
0.000000
 40
2.066667
 50
-149.176098
 51
30.823902
  6
CONTINUOUS
  0
ARC
  8
WHITE
 10
141.472197
 20
2.354342
 30
0.000000
 40
5.166667
 50
30.823902
 51
90.000000
  6
CONTINUOUS
  0
LINE
  8
WHITE
 10
141.472197
 20
7.521009
 30
0.000000
 11
126.764488
 21
7.521009
 31
0.000000
  6
CONTINUOUS
  0
LINE
  8
WHITE
 10
126.764488
 20
7.521009
 30
0.000000
 11
126.764488
 21
10.104342
 31
0.000000
  6
CONTINUOUS
  0
LINE
  8
WHITE
 10
126.764488
 20
10.104342
 30
0.000000
 11
125.214488
 21
10.104342
 31
0.000000
  6
CONTINUOUS
  0
LINE
  8
WHITE
 10
125.214488
 20
10.104342
 30
0.000000
 11
125.214488
 21
7.521009
 31
0.000000
  6
CONTINUOUS
  0
LINE
  8
WHITE
 10
125.214488
 20
7.521009
 30
0.000000
 11
80.264488
 21
7.521009
 31
0.000000
  6
CONTINUOUS
  0
LINE
  8
WHITE
 10
80.264488
 20
7.521009
 30
0.000000
 11
80.264488
 21
10.104342
 31
0.000000
  6
CONTINUOUS
  0
LINE
  8
WHITE
 10
80.264488
 20
10.104342
 30
0.000000
 11
78.714488
 21
10.104342
 31
0.000000
  6
CONTINUOUS
  0
LINE
  8
WHITE
 10
78.714488
 20
10.104342
 30
0.000000
 11
78.714488
 21
7.521009
 31
0.000000
  6
CONTINUOUS
  0
LINE
  8
WHITE
 10
78.714488
 20
7.521009
 30
0.000000
 11
64.006778
 21
7.521009
 31
0.000000
  6
CONTINUOUS
  0
ARC
  8
WHITE
 10
64.006778
 20
2.354342
 30
0.000000
 40
5.166667
 50
90.000000
 51
149.176098
  6
CONTINUOUS
  0
ARC
  8
WHITE
 10
57.795180
 20
6.060710
 30
0.000000
 40
2.066667
 50
149.176098
 51
329.176098
  6
CONTINUOUS
  0
ARC
  8
WHITE
 10
64.006778
 20
2.354342
 30
0.000000
 40
9.300000
 50
90.000000
 51
149.176098
  6
CONTINUOUS
  0
LINE
  8
WHITE
 10
64.006778
 20
11.654342
 30
0.000000
 11
74.581154
 21
11.654342
 31
0.000000
  6
CONTINUOUS
  0
LINE
  8
WHITE
 10
108.559781
 20
22.980551
 30
0.000000
 11
108.559781
 21
25.047218
 31
0.000000
  6
CONTINUOUS
  0
ARC
  8
WHITE
 10
109.076448
 20
25.047218
 30
0.000000
 40
0.516667
 50
90.000000
 51
180.000000
  6
CONTINUOUS
  0
LINE
  8
WHITE
 10
109.076448
 20
25.563884
 30
0.000000
 11
117.859781
 21
25.563884
 31
0.000000
  6
CONTINUOUS
  0
ARC
  8
WHITE
 10
117.859781
 20
25.047218
 30
0.000000
 40
0.516667
 50
0.000000
 51
90.000000
  6
CONTINUOUS
  0
LINE
  8
WHITE
 10
118.376448
 20
25.047218
 30
0.000000
 11
118.376448
 21
22.980551
 31
0.000000
  6
CONTINUOUS
  0
LINE
  8
WHITE
 10
118.376448
 20
22.980551
 30
0.000000
 11
155.059781
 21
22.980551
 31
0.000000
  6
CONTINUOUS
  0
LINE
  8
WHITE
 10
155.059781
 20
22.980551
 30
0.000000
 11
155.059781
 21
25.047218
 31
0.000000
  6
CONTINUOUS
  0
ARC
  8
WHITE
 10
155.576448
 20
25.047218
 30
0.000000
 40
0.516667
 50
90.000000
 51
180.000000
  6
CONTINUOUS
  0
LINE
  8
WHITE
 10
155.576448
 20
25.563884
 30
0.000000
 11
164.359781
 21
25.563884
 31
0.000000
  6
CONTINUOUS
  0
ARC
  8
WHITE
 10
164.359781
 20
25.047218
 30
0.000000
 40
0.516667
 50
0.000000
 51
90.000000
  6
CONTINUOUS
  0
LINE
  8
WHITE
 10
164.876448
 20
25.047218
 30
0.000000
 11
164.876448
 21
22.980551
 31
0.000000
  6
CONTINUOUS
  0
LINE
  8
WHITE
 10
164.876448
 20
22.980551
 30
0.000000
 11
175.450824
 21
22.980551
 31
0.000000
  6
CONTINUOUS
  0
ARC
  8
WHITE
 10
175.450824
 20
13.680551
 30
0.000000
 40
9.300000
 50
30.823902
 51
90.000000
  6
CONTINUOUS
  0
ARC
  8
WHITE
 10
181.662422
 20
17.386919
 30
0.000000
 40
2.066667
 50
-149.176098
 51
30.823902
  6
CONTINUOUS
  0
ARC
  8
WHITE
 10
175.450824
 20
13.680551
 30
0.000000
 40
5.166667
 50
30.823902
 51
90.000000
  6
CONTINUOUS
  0
LINE
  8
WHITE
 10
175.450824
 20
18.847218
 30
0.000000
 11
160.743114
 21
18.847218
 31
0.000000
  6
CONTINUOUS
  0
LINE
  8
WHITE
 10
160.743114
 20
18.847218
 30
0.000000
 11
160.743114
 21
21.430551
 31
0.000000
  6
CONTINUOUS
  0
LINE
  8
WHITE
 10
160.743114
 20
21.430551
 30
0.000000
 11
159.193114
 21
21.430551
 31
0.000000
  6
CONTINUOUS
  0
LINE
  8
WHITE
 10
159.193114
 20
21.430551
 30
0.000000
 11
159.193114
 21
18.847218
 31
0.000000
  6
CONTINUOUS
  0
LINE
  8
WHITE
 10
159.193114
 20
18.847218
 30
0.000000
 11
114.243114
 21
18.847218
 31
0.000000
  6
CONTINUOUS
  0
LINE
  8
WHITE
 10
114.243114
 20
18.847218
 30
0.000000
 11
114.243114
 21
21.430551
 31
0.000000
  6
CONTINUOUS
  0
LINE
  8
WHITE
 10
114.243114
 20
21.430551
 30
0.000000
 11
112.693114
 21
21.430551
 31
0.000000
  6
CONTINUOUS
  0
LINE
  8
WHITE
 10
112.693114
 20
21.430551
 30
0.000000
 11
112.693114
 21
18.847218
 31
0.000000
  6
CONTINUOUS
  0
LINE
  8
WHITE
 10
112.693114
 20
18.847218
 30
0.000000
 11
97.985404
 21
18.847218
 31
0.000000
  6
CONTINUOUS
  0
ARC
  8
WHITE
 10
97.985404
 20
13.680551
 30
0.000000
 40
5.166667
 50
90.000000
 51
149.176098
  6
CONTINUOUS
  0
ARC
  8
WHITE
 10
91.773807
 20
17.386919
 30
0.000000
 40
2.066667
 50
149.176098
 51
329.176098
  6
CONTINUOUS
  0
ARC
  8
WHITE
 10
97.985404
 20
13.680551
 30
0.000000
 40
9.300000
 50
90.000000
 51
149.176098
  6
CONTINUOUS
  0
LINE
  8
WHITE
 10
97.985404
 20
22.980551
 30
0.000000
 11
108.559781
 21
22.980551
 31
0.000000
  6
CONTINUOUS
  0
ARC
  8
WHITE
 10
220.252181
 20
69.629447
 30
0.000000
 40
31.000000
 50
156.917979
 51
203.082021
  6
CONTINUOUS
  0
ARC
  8
WHITE
 10
485.860176
 20
182.822363
 30
0.000000
 40
319.721739
 50
-156.917979
 51
-156.147094
  6
CONTINUOUS
  0
ARC
  8
WHITE
 10
178.466932
 20
72.544143
 30
0.000000
 40
24.206090
 50
-76.583884
 51
-51.767583
  6
CONTINUOUS
  0
LINE
  8
WHITE
 10
184.083265
 20
48.998622
 30
0.000000
 11
180.532959
 21
48.308980
 31
0.000000
  6
CONTINUOUS
  0
ARC
  8
WHITE
 10
180.730000
 20
47.294607
 30
0.000000
 40
1.033333
 50
100.992730
 51
190.992730
  6
CONTINUOUS
  0
LINE
  8
WHITE
 10
179.715627
 20
47.097566
 30
0.000000
 11
179.764887
 21
46.843973
 31
0.000000
  6
CONTINUOUS
  0
LINE
  8
WHITE
 10
179.764887
 20
46.843973
 30
0.000000
 11
182.300820
 21
47.336574
 31
0.000000
  6
CONTINUOUS
  0
LINE
  8
WHITE
 10
182.300820
 20
47.336574
 30
0.000000
 11
182.596381
 21
45.815015
 31
0.000000
  6
CONTINUOUS
  0
LINE
  8
WHITE
 10
182.596381
 20
45.815015
 30
0.000000
 11
180.060448
 21
45.322413
 31
0.000000
  6
CONTINUOUS
  0
LINE
  8
WHITE
 10
180.060448
 20
45.322413
 30
0.000000
 11
180.109708
 21
45.068820
 31
0.000000
  6
CONTINUOUS
  0
ARC
  8
WHITE
 10
181.124081
 20
45.265861
 30
0.000000
 40
1.033333
 50
-169.007270
 51
-79.007270
  6
CONTINUOUS
  0
LINE
  8
WHITE
 10
181.321122
 20
44.251488
 30
0.000000
 11
184.871428
 21
44.941130
 31
0.000000
  6
CONTINUOUS
  0
ARC
  8
WHITE
 10
199.851437
 20
25.927080
 30
0.000000
 40
24.206090
 50
103.416116
 51
128.232417
  6
CONTINUOUS
  0
LINE
  8
WHITE
 10
194.235104
 20
49.472601
 30
0.000000
 11
198.260079
 21
50.254447
 31
0.000000
  6
CONTINUOUS
  0
LINE
  8
WHITE
 10
198.260079
 20
50.254447
 30
0.000000
 11
199.086501
 21
50.254447
 31
0.000000
  6
CONTINUOUS
  0
ARC
  8
WHITE
 10
199.086501
 20
51.287780
 30
0.000000
 40
1.033333
 50
-90.000000
 51
0.000000
  6
CONTINUOUS
  0
LINE
  8
WHITE
 10
200.119835
 20
51.287780
 30
0.000000
 11
200.119835
 21
53.354447
 31
0.000000
  6
CONTINUOUS
  0
LINE
  8
WHITE
 10
200.119835
 20
53.354447
 30
0.000000
 11
197.904874
 21
53.354447
 31
0.000000
  6
CONTINUOUS
  0
LINE
  8
WHITE
 10
197.904874
 20
53.354447
 30
0.000000
 11
197.904874
 21
54.904447
 31
0.000000
  6
CONTINUOUS
  0
LINE
  8
WHITE
 10
197.904874
 20
54.904447
 30
0.000000
 11
200.119835
 21
54.904447
 31
0.000000
  6
CONTINUOUS
  0
LINE
  8
WHITE
 10
200.119835
 20
54.904447
 30
0.000000
 11
200.119835
 21
61.104447
 31
0.000000
  6
CONTINUOUS
  0
LINE
  8
WHITE
 10
200.119835
 20
61.104447
 30
0.000000
 11
195.469835
 21
61.104447
 31
0.000000
  6
CONTINUOUS
  0
LINE
  8
WHITE
 10
195.469835
 20
61.104447
 30
0.000000
 11
195.469835
 21
62.654447
 31
0.000000
  6
CONTINUOUS
  0
LINE
  8
WHITE
 10
195.469835
 20
62.654447
 30
0.000000
 11
200.119835
 21
62.654447
 31
0.000000
  6
CONTINUOUS
  0
LINE
  8
WHITE
 10
200.119835
 20
62.654447
 30
0.000000
 11
200.119835
 21
68.854447
 31
0.000000
  6
CONTINUOUS
  0
LINE
  8
WHITE
 10
200.119835
 20
68.854447
 30
0.000000
 11
195.469835
 21
68.854447
 31
0.000000
  6
CONTINUOUS
  0
LINE
  8
WHITE
 10
195.469835
 20
68.854447
 30
0.000000
 11
195.469835
 21
70.404447
 31
0.000000
  6
CONTINUOUS
  0
LINE
  8
WHITE
 10
195.469835
 20
70.404447
 30
0.000000
 11
200.119835
 21
70.404447
 31
0.000000
  6
CONTINUOUS
  0
LINE
  8
WHITE
 10
200.119835
 20
70.404447
 30
0.000000
 11
200.119835
 21
76.604447
 31
0.000000
  6
CONTINUOUS
  0
LINE
  8
WHITE
 10
200.119835
 20
76.604447
 30
0.000000
 11
195.469835
 21
76.604447
 31
0.000000
  6
CONTINUOUS
  0
LINE
  8
WHITE
 10
195.469835
 20
76.604447
 30
0.000000
 11
195.469835
 21
78.154447
 31
0.000000
  6
CONTINUOUS
  0
LINE
  8
WHITE
 10
195.469835
 20
78.154447
 30
0.000000
 11
200.119835
 21
78.154447
 31
0.000000
  6
CONTINUOUS
  0
LINE
  8
WHITE
 10
200.119835
 20
78.154447
 30
0.000000
 11
200.119835
 21
84.354447
 31
0.000000
  6
CONTINUOUS
  0
LINE
  8
WHITE
 10
200.119835
 20
84.354447
 30
0.000000
 11
197.904874
 21
84.354447
 31
0.000000
  6
CONTINUOUS
  0
LINE
  8
WHITE
 10
197.904874
 20
84.354447
 30
0.000000
 11
197.904874
 21
85.904447
 31
0.000000
  6
CONTINUOUS
  0
LINE
  8
WHITE
 10
197.904874
 20
85.904447
 30
0.000000
 11
200.119835
 21
85.904447
 31
0.000000
  6
CONTINUOUS
  0
LINE
  8
WHITE
 10
200.119835
 20
85.904447
 30
0.000000
 11
200.119835
 21
87.971114
 31
0.000000
  6
CONTINUOUS
  0
ARC
  8
WHITE
 10
199.086501
 20
87.971114
 30
0.000000
 40
1.033333
 50
0.000000
 51
90.000000
  6
CONTINUOUS
  0
LINE
  8
WHITE
 10
199.086501
 20
89.004447
 30
0.000000
 11
198.260079
 21
89.004447
 31
0.000000
  6
CONTINUOUS
  0
LINE
  8
WHITE
 10
198.260079
 20
89.004447
 30
0.000000
 11
194.235104
 21
89.786293
 31
0.000000
  6
CONTINUOUS
  0
ARC
  8
WHITE
 10
199.851437
 20
113.331814
 30
0.000000
 40
24.206090
 50
-128.232417
 51
-103.416116
  6
CONTINUOUS
  0
LINE
  8
WHITE
 10
184.871428
 20
94.317764
 30
0.000000
 11
181.321122
 21
95.007406
 31
0.000000
  6
CONTINUOUS
  0
ARC
  8
WHITE
 10
181.124081
 20
93.993033
 30
0.000000
 40
1.033333
 50
79.007270
 51
169.007270
  6
CONTINUOUS
  0
LINE
  8
WHITE
 10
180.109708
 20
94.190074
 30
0.000000
 11
180.060448
 21
93.936481
 31
0.000000
  6
CONTINUOUS
  0
LINE
  8
WHITE
 10
180.060448
 20
93.936481
 30
0.000000
 11
182.596381
 21
93.443879
 31
0.000000
  6
CONTINUOUS
  0
LINE
  8
WHITE
 10
182.596381
 20
93.443879
 30
0.000000
 11
182.300820
 21
91.922320
 31
0.000000
  6
CONTINUOUS
  0
LINE
  8
WHITE
 10
182.300820
 20
91.922320
 30
0.000000
 11
179.764887
 21
92.414921
 31
0.000000
  6
CONTINUOUS
  0
LINE
  8
WHITE
 10
179.764887
 20
92.414921
 30
0.000000
 11
179.715627
 21
92.161328
 31
0.000000
  6
CONTINUOUS
  0
ARC
  8
WHITE
 10
180.730000
 20
91.964287
 30
0.000000
 40
1.033333
 50
169.007270
 51
259.007270
  6
CONTINUOUS
  0
LINE
  8
WHITE
 10
180.532959
 20
90.949914
 30
0.000000
 11
184.083265
 21
90.260272
 31
0.000000
  6
CONTINUOUS
  0
ARC
  8
WHITE
 10
178.466932
 20
66.714751
 30
0.000000
 40
24.206090
 50
51.767583
 51
76.583884
  6
CONTINUOUS
  0
ARC
  8
WHITE
 10
485.860176
 20
-43.563469
 30
0.000000
 40
319.721739
 50
156.147094
 51
156.917979
  6
CONTINUOUS
  0
ARC
  8
WHITE
 10
177.187915
 20
9.004469
 30
0.000000
 40
3.900833
 50
31.571368
 51
167.911396
  6
CONTINUOUS
  0
ARC
  8
WHITE
 10
172.363164
 20
10.037802
 30
0.000000
 40
1.033333
 50
-90.000000
 51
-12.088604
  6
CONTINUOUS
  0
LINE
  8
WHITE
 10
172.363164
 20
9.004469
 30
0.000000
 11
156.521248
 21
9.004469
 31
0.000000
  6
CONTINUOUS
  0
ARC
  8
WHITE
 10
156.521248
 20
7.054052
 30
0.000000
 40
1.950417
 50
90.000000
 51
270.000000
  6
CONTINUOUS
  0
LINE
  8
WHITE
 10
156.521248
 20
5.103636
 30
0.000000
 11
167.958332
 21
5.103636
 31
0.000000
  6
CONTINUOUS
  0
ARC
  8
WHITE
 10
167.958332
 20
9.236969
 30
0.000000
 40
4.133333
 50
-90.000000
 51
-45.000000
  6
CONTINUOUS
  0
LINE
  8
WHITE
 10
170.881040
 20
6.314261
 30
0.000000
 11
172.021248
 21
7.454469
 31
0.000000
  6
CONTINUOUS
  0
LINE
  8
WHITE
 10
172.021248
 20
7.454469
 30
0.000000
 11
172.984061
 21
7.454469
 31
0.000000
  6
CONTINUOUS
  0
ARC
  8
WHITE
 10
172.984061
 20
6.421136
 30
0.000000
 40
1.033333
 50
31.571368
 51
90.000000
  6
CONTINUOUS
  0
ARC
  8
WHITE
 10
177.187915
 20
9.004469
 30
0.000000
 40
3.900833
 50
-148.428632
 51
-12.088604
  6
CONTINUOUS
  0
ARC
  8
WHITE
 10
182.012666
 20
7.971136
 30
0.000000
 40
1.033333
 50
90.000000
 51
167.911396
  6
CONTINUOUS
  0
LINE
  8
WHITE
 10
182.012666
 20
9.004469
 30
0.000000
 11
197.854581
 21
9.004469
 31
0.000000
  6
CONTINUOUS
  0
ARC
  8
WHITE
 10
197.854581
 20
10.954886
 30
0.000000
 40
1.950417
 50
-90.000000
 51
90.000000
  6
CONTINUOUS
  0
LINE
  8
WHITE
 10
197.854581
 20
12.905302
 30
0.000000
 11
186.417497
 21
12.905302
 31
0.000000
  6
CONTINUOUS
  0
ARC
  8
WHITE
 10
186.417497
 20
8.771969
 30
0.000000
 40
4.133333
 50
90.000000
 51
135.000000
  6
CONTINUOUS
  0
LINE
  8
WHITE
 10
183.494789
 20
11.694677
 30
0.000000
 11
182.354581
 21
10.554469
 31
0.000000
  6
CONTINUOUS
  0
LINE
  8
WHITE
 10
182.354581
 20
10.554469
 30
0.000000
 11
181.391769
 21
10.554469
 31
0.000000
  6
CONTINUOUS
  0
ARC
  8
WHITE
 10
181.391769
 20
11.587802
 30
0.000000
 40
1.033333
 50
-148.428632
 51
-90.000000
  6
CONTINUOUS
  0
CIRCLE
  8
WHITE
 10
177.187915
 20
9.004469
 30
0.000000
 40
2.867500
  6
CONTINUOUS
  0
LINE
  8
WHITE
 10
13.538303
 20
109.935700
 30
0.000000
 11
13.538303
 21
114.740700
 31
0.000000
  6
CONTINUOUS
  0
ARC
  8
WHITE
 10
12.918303
 20
114.740700
 30
0.000000
 40
0.620000
 50
0.000000
 51
90.000000
  6
CONTINUOUS
  0
LINE
  8
WHITE
 10
12.918303
 20
115.360700
 30
0.000000
 11
12.763303
 21
115.360700
 31
0.000000
  6
CONTINUOUS
  0
LINE
  8
WHITE
 10
12.763303
 20
115.360700
 30
0.000000
 11
12.763303
 21
119.584450
 31
0.000000
  6
CONTINUOUS
  0
ARC
  8
WHITE
 10
11.368303
 20
119.584450
 30
0.000000
 40
1.395000
 50
0.000000
 51
90.000000
  6
CONTINUOUS
  0
LINE
  8
WHITE
 10
11.368303
 20
120.979450
 30
0.000000
 11
10.825803
 21
120.979450
 31
0.000000
  6
CONTINUOUS
  0
LINE
  8
WHITE
 10
10.825803
 20
120.979450
 30
0.000000
 11
10.825803
 21
116.329450
 31
0.000000
  6
CONTINUOUS
  0
LINE
  8
WHITE
 10
10.825803
 20
116.329450
 30
0.000000
 11
9.275803
 21
116.329450
 31
0.000000
  6
CONTINUOUS
  0
LINE
  8
WHITE
 10
9.275803
 20
116.329450
 30
0.000000
 11
9.275803
 21
120.979450
 31
0.000000
  6
CONTINUOUS
  0
LINE
  8
WHITE
 10
9.275803
 20
120.979450
 30
0.000000
 11
8.733303
 21
120.979450
 31
0.000000
  6
CONTINUOUS
  0
ARC
  8
WHITE
 10
8.733303
 20
119.584450
 30
0.000000
 40
1.395000
 50
90.000000
 51
180.000000
  6
CONTINUOUS
  0
LINE
  8
WHITE
 10
7.338303
 20
119.584450
 30
0.000000
 11
7.338303
 21
115.360700
 31
0.000000
  6
CONTINUOUS
  0
LINE
  8
WHITE
 10
7.338303
 20
115.360700
 30
0.000000
 11
7.183303
 21
115.360700
 31
0.000000
  6
CONTINUOUS
  0
ARC
  8
WHITE
 10
7.183303
 20
114.740700
 30
0.000000
 40
0.620000
 50
90.000000
 51
180.000000
  6
CONTINUOUS
  0
LINE
  8
WHITE
 10
6.563303
 20
114.740700
 30
0.000000
 11
6.563303
 21
106.680700
 31
0.000000
  6
CONTINUOUS
  0
ARC
  8
WHITE
 10
7.958303
 20
106.680700
 30
0.000000
 40
1.395000
 50
180.000000
 51
270.000000
  6
CONTINUOUS
  0
LINE
  8
WHITE
 10
7.958303
 20
105.285700
 30
0.000000
 11
17.025803
 21
105.285700
 31
0.000000
  6
CONTINUOUS
  0
LINE
  8
WHITE
 10
17.025803
 20
105.285700
 30
0.000000
 11
17.025803
 21
106.835700
 31
0.000000
  6
CONTINUOUS
  0
LINE
  8
WHITE
 10
17.025803
 20
106.835700
 30
0.000000
 11
10.050803
 21
106.835700
 31
0.000000
  6
CONTINUOUS
  0
LINE
  8
WHITE
 10
10.050803
 20
106.835700
 30
0.000000
 11
10.050803
 21
108.385700
 31
0.000000
  6
CONTINUOUS
  0
LINE
  8
WHITE
 10
10.050803
 20
108.385700
 30
0.000000
 11
17.025803
 21
108.385700
 31
0.000000
  6
CONTINUOUS
  0
LINE
  8
WHITE
 10
17.025803
 20
108.385700
 30
0.000000
 11
17.025803
 21
109.935700
 31
0.000000
  6
CONTINUOUS
  0
LINE
  8
WHITE
 10
17.025803
 20
109.935700
 30
0.000000
 11
13.538303
 21
109.935700
 31
0.000000
  6
CONTINUOUS
  0
LINE
  8
WHITE
 10
36.488372
 20
116.180883
 30
0.000000
 11
36.488372
 21
114.243383
 31
0.000000
  6
CONTINUOUS
  0
LINE
  8
WHITE
 10
36.488372
 20
114.243383
 30
0.000000
 11
30.908372
 21
114.243383
 31
0.000000
  6
CONTINUOUS
  0
LINE
  8
WHITE
 10
30.908372
 20
114.243383
 30
0.000000
 11
30.908372
 21
111.789217
 31
0.000000
  6
CONTINUOUS
  0
ARC
  8
WHITE
 10
32.870884
 20
117.012557
 30
0.000000
 40
5.579850
 50
110.592184
 51
249.407816
  6
CONTINUOUS
  0
LINE
  8
WHITE
 10
30.908372
 20
122.235897
 30
0.000000
 11
30.908372
 21
119.668383
 31
0.000000
  6
CONTINUOUS
  0
LINE
  8
WHITE
 10
30.908372
 20
119.668383
 30
0.000000
 11
36.488372
 21
119.668383
 31
0.000000
  6
CONTINUOUS
  0
LINE
  8
WHITE
 10
36.488372
 20
119.668383
 30
0.000000
 11
36.488372
 21
117.730883
 31
0.000000
  6
CONTINUOUS
  0
LINE
  8
WHITE
 10
36.488372
 20
117.730883
 30
0.000000
 11
31.838372
 21
117.730883
 31
0.000000
  6
CONTINUOUS
  0
LINE
  8
WHITE
 10
31.838372
 20
117.730883
 30
0.000000
 11
31.838372
 21
116.180883
 31
0.000000
  6
CONTINUOUS
  0
LINE
  8
WHITE
 10
31.838372
 20
116.180883
 30
0.000000
 11
36.488372
 21
116.180883
 31
0.000000
  6
CONTINUOUS
  0
LINE
  8
WHITE
 10
181.234810
 20
115.815261
 30
0.000000
 11
181.234810
 21
113.877761
 31
0.000000
  6
CONTINUOUS
  0
LINE
  8
WHITE
 10
181.234810
 20
113.877761
 30
0.000000
 11
175.654810
 21
113.877761
 31
0.000000
  6
CONTINUOUS
  0
LINE
  8
WHITE
 10
175.654810
 20
113.877761
 30
0.000000
 11
175.654810
 21
111.423594
 31
0.000000
  6
CONTINUOUS
  0
ARC
  8
WHITE
 10
177.617321
 20
116.646934
 30
0.000000
 40
5.579850
 50
110.592184
 51
249.407816
  6
CONTINUOUS
  0
LINE
  8
WHITE
 10
175.654810
 20
121.870274
 30
0.000000
 11
175.654810
 21
119.302761
 31
0.000000
  6
CONTINUOUS
  0
LINE
  8
WHITE
 10
175.654810
 20
119.302761
 30
0.000000
 11
181.234810
 21
119.302761
 31
0.000000
  6
CONTINUOUS
  0
LINE
  8
WHITE
 10
181.234810
 20
119.302761
 30
0.000000
 11
181.234810
 21
117.365261
 31
0.000000
  6
CONTINUOUS
  0
LINE
  8
WHITE
 10
181.234810
 20
117.365261
 30
0.000000
 11
176.584810
 21
117.365261
 31
0.000000
  6
CONTINUOUS
  0
LINE
  8
WHITE
 10
176.584810
 20
117.365261
 30
0.000000
 11
176.584810
 21
115.815261
 31
0.000000
  6
CONTINUOUS
  0
LINE
  8
WHITE
 10
176.584810
 20
115.815261
 30
0.000000
 11
181.234810
 21
115.815261
 31
0.000000
  6
CONTINUOUS
  0
ARC
  8
WHITE
 10
201.666667
 20
131.895677
 30
0.000000
 40
5.000000
 50
0.000000
 51
90.000000
  6
CONTINUOUS
  0
LINE
  8
WHITE
 10
201.666667
 20
136.895677
 30
0.000000
 11
5.000000
 21
136.895677
 31
0.000000
  6
CONTINUOUS
  0
ARC
  8
WHITE
 10
5.000000
 20
131.895677
 30
0.000000
 40
5.000000
 50
90.000000
 51
180.000000
  6
CONTINUOUS
  0
LINE
  8
WHITE
 10
0.000000
 20
131.895677
 30
0.000000
 11
0.000000
 21
5.000000
 31
0.000000
  6
CONTINUOUS
  0
ARC
  8
WHITE
 10
5.000000
 20
5.000000
 30
0.000000
 40
5.000000
 50
180.000000
 51
270.000000
  6
CONTINUOUS
  0
LINE
  8
WHITE
 10
5.000000
 20
0.000000
 30
0.000000
 11
201.666667
 21
0.000000
 31
0.000000
  6
CONTINUOUS
  0
ARC
  8
WHITE
 10
201.666667
 20
5.000000
 30
0.000000
 40
5.000000
 50
-90.000000
 51
0.000000
  6
CONTINUOUS
  0
LINE
  8
WHITE
 10
206.666667
 20
5.000000
 30
0.000000
 11
206.666667
 21
134.270483
 31
0.000000
  6
CONTINUOUS
  0
ENDSEC
  0
EOF
